<mxfile host="app.diagrams.net" modified="2021-10-04T19:05:33.239Z" agent="5.0 (Macintosh; Intel Mac OS X 10_15_7) AppleWebKit/537.36 (KHTML, like Gecko) Chrome/94.0.4606.61 Safari/537.36" etag="4JJYsA0buACSXp6izc1n" version="15.4.1" type="github">
  <diagram id="Y2ruSsz-ofUZzDlT8qKe" name="Page-1">
    <mxGraphModel dx="946" dy="645" grid="1" gridSize="10" guides="1" tooltips="1" connect="1" arrows="1" fold="1" page="0" pageScale="1" pageWidth="850" pageHeight="1100" math="0" shadow="0">
      <root>
        <mxCell id="0" />
        <mxCell id="1" parent="0" />
        <mxCell id="RAnUYokOQ0HX44caFUxl-31" style="edgeStyle=orthogonalEdgeStyle;rounded=0;orthogonalLoop=1;jettySize=auto;html=1;entryX=0.5;entryY=1;entryDx=0;entryDy=0;" edge="1" parent="1" source="RAnUYokOQ0HX44caFUxl-1" target="RAnUYokOQ0HX44caFUxl-2">
          <mxGeometry relative="1" as="geometry" />
        </mxCell>
        <mxCell id="RAnUYokOQ0HX44caFUxl-1" value="Cron Job&lt;br&gt;(News Collector)" style="rounded=1;whiteSpace=wrap;html=1;" vertex="1" parent="1">
          <mxGeometry x="360" y="170" width="160" height="60" as="geometry" />
        </mxCell>
        <mxCell id="RAnUYokOQ0HX44caFUxl-6" value="" style="group" vertex="1" connectable="0" parent="1">
          <mxGeometry x="640" y="160" width="80" height="280" as="geometry" />
        </mxCell>
        <mxCell id="RAnUYokOQ0HX44caFUxl-2" value="" style="rounded=1;whiteSpace=wrap;html=1;rotation=90;" vertex="1" parent="RAnUYokOQ0HX44caFUxl-6">
          <mxGeometry x="-100" y="100" width="280" height="80" as="geometry" />
        </mxCell>
        <mxCell id="RAnUYokOQ0HX44caFUxl-3" value="K&lt;br&gt;&lt;br&gt;A&lt;br&gt;&lt;br&gt;F&lt;br&gt;&lt;br&gt;K&lt;br&gt;&lt;br&gt;A" style="text;html=1;strokeColor=none;fillColor=none;align=center;verticalAlign=middle;whiteSpace=wrap;rounded=0;" vertex="1" parent="RAnUYokOQ0HX44caFUxl-6">
          <mxGeometry x="10" y="100" width="60" height="140" as="geometry" />
        </mxCell>
        <mxCell id="RAnUYokOQ0HX44caFUxl-5" value="" style="shape=image;verticalLabelPosition=bottom;labelBackgroundColor=#ffffff;verticalAlign=top;aspect=fixed;imageAspect=0;image=https://upload.wikimedia.org/wikipedia/commons/thumb/0/05/Apache_kafka.svg/1261px-Apache_kafka.svg.png;" vertex="1" parent="RAnUYokOQ0HX44caFUxl-6">
          <mxGeometry x="21.539999999999964" y="38" width="36.92" height="60" as="geometry" />
        </mxCell>
        <mxCell id="RAnUYokOQ0HX44caFUxl-13" style="edgeStyle=orthogonalEdgeStyle;rounded=0;orthogonalLoop=1;jettySize=auto;html=1;entryX=0.013;entryY=0.613;entryDx=0;entryDy=0;entryPerimeter=0;" edge="1" parent="1" source="RAnUYokOQ0HX44caFUxl-8" target="RAnUYokOQ0HX44caFUxl-10">
          <mxGeometry relative="1" as="geometry" />
        </mxCell>
        <mxCell id="RAnUYokOQ0HX44caFUxl-8" value="Kafka Collector&lt;br&gt;(News)" style="rounded=1;whiteSpace=wrap;html=1;" vertex="1" parent="1">
          <mxGeometry x="800" y="160" width="120" height="60" as="geometry" />
        </mxCell>
        <mxCell id="RAnUYokOQ0HX44caFUxl-9" style="edgeStyle=orthogonalEdgeStyle;rounded=0;orthogonalLoop=1;jettySize=auto;html=1;" edge="1" parent="1" source="RAnUYokOQ0HX44caFUxl-2" target="RAnUYokOQ0HX44caFUxl-8">
          <mxGeometry relative="1" as="geometry" />
        </mxCell>
        <mxCell id="RAnUYokOQ0HX44caFUxl-12" value="" style="group" vertex="1" connectable="0" parent="1">
          <mxGeometry x="1000" y="160" width="120" height="120" as="geometry" />
        </mxCell>
        <mxCell id="RAnUYokOQ0HX44caFUxl-10" value="" style="shape=datastore;whiteSpace=wrap;html=1;fillColor=#dae8fc;strokeColor=#6c8ebf;" vertex="1" parent="RAnUYokOQ0HX44caFUxl-12">
          <mxGeometry width="120" height="120" as="geometry" />
        </mxCell>
        <mxCell id="RAnUYokOQ0HX44caFUxl-11" value="" style="shape=image;verticalLabelPosition=bottom;labelBackgroundColor=#ffffff;verticalAlign=top;aspect=fixed;imageAspect=0;image=https://1000logos.net/wp-content/uploads/2020/08/MySQL-Logo.png;" vertex="1" parent="RAnUYokOQ0HX44caFUxl-12">
          <mxGeometry x="19" y="48.75" width="82" height="51.25" as="geometry" />
        </mxCell>
        <mxCell id="RAnUYokOQ0HX44caFUxl-27" style="edgeStyle=orthogonalEdgeStyle;rounded=0;orthogonalLoop=1;jettySize=auto;html=1;entryX=1;entryY=0.5;entryDx=0;entryDy=0;" edge="1" parent="1" source="RAnUYokOQ0HX44caFUxl-14" target="RAnUYokOQ0HX44caFUxl-10">
          <mxGeometry relative="1" as="geometry">
            <mxPoint x="1130" y="270" as="targetPoint" />
          </mxGeometry>
        </mxCell>
        <mxCell id="RAnUYokOQ0HX44caFUxl-28" style="edgeStyle=orthogonalEdgeStyle;rounded=0;orthogonalLoop=1;jettySize=auto;html=1;" edge="1" parent="1" source="RAnUYokOQ0HX44caFUxl-14" target="RAnUYokOQ0HX44caFUxl-25">
          <mxGeometry relative="1" as="geometry" />
        </mxCell>
        <mxCell id="RAnUYokOQ0HX44caFUxl-14" value="Data Preprocessing" style="rounded=1;whiteSpace=wrap;html=1;" vertex="1" parent="1">
          <mxGeometry x="1200" y="160" width="160" height="60" as="geometry" />
        </mxCell>
        <mxCell id="RAnUYokOQ0HX44caFUxl-30" style="edgeStyle=orthogonalEdgeStyle;rounded=0;orthogonalLoop=1;jettySize=auto;html=1;entryX=1.05;entryY=0.578;entryDx=0;entryDy=0;entryPerimeter=0;" edge="1" parent="1" source="RAnUYokOQ0HX44caFUxl-25" target="RAnUYokOQ0HX44caFUxl-29">
          <mxGeometry relative="1" as="geometry" />
        </mxCell>
        <mxCell id="RAnUYokOQ0HX44caFUxl-25" value="Model Building" style="rounded=1;whiteSpace=wrap;html=1;" vertex="1" parent="1">
          <mxGeometry x="1220" y="280" width="120" height="60" as="geometry" />
        </mxCell>
        <mxCell id="RAnUYokOQ0HX44caFUxl-26" style="edgeStyle=orthogonalEdgeStyle;rounded=0;orthogonalLoop=1;jettySize=auto;html=1;entryX=0;entryY=0.5;entryDx=0;entryDy=0;" edge="1" parent="1" source="RAnUYokOQ0HX44caFUxl-10" target="RAnUYokOQ0HX44caFUxl-14">
          <mxGeometry relative="1" as="geometry" />
        </mxCell>
        <mxCell id="RAnUYokOQ0HX44caFUxl-34" style="edgeStyle=orthogonalEdgeStyle;rounded=0;orthogonalLoop=1;jettySize=auto;html=1;entryX=0.5;entryY=1;entryDx=0;entryDy=0;" edge="1" parent="1" source="RAnUYokOQ0HX44caFUxl-29" target="RAnUYokOQ0HX44caFUxl-32">
          <mxGeometry relative="1" as="geometry">
            <Array as="points">
              <mxPoint x="1040" y="480" />
              <mxPoint x="440" y="480" />
            </Array>
          </mxGeometry>
        </mxCell>
        <mxCell id="RAnUYokOQ0HX44caFUxl-29" value="Storage" style="shape=cylinder3;whiteSpace=wrap;html=1;boundedLbl=1;backgroundOutline=1;size=15;" vertex="1" parent="1">
          <mxGeometry x="1000" y="320" width="80" height="90" as="geometry" />
        </mxCell>
        <mxCell id="RAnUYokOQ0HX44caFUxl-35" style="edgeStyle=orthogonalEdgeStyle;rounded=0;orthogonalLoop=1;jettySize=auto;html=1;entryX=0.5;entryY=1;entryDx=0;entryDy=0;" edge="1" parent="1" source="RAnUYokOQ0HX44caFUxl-32" target="RAnUYokOQ0HX44caFUxl-2">
          <mxGeometry relative="1" as="geometry" />
        </mxCell>
        <mxCell id="RAnUYokOQ0HX44caFUxl-32" value="News Predictor Portal" style="rounded=1;whiteSpace=wrap;html=1;" vertex="1" parent="1">
          <mxGeometry x="360" y="320" width="160" height="60" as="geometry" />
        </mxCell>
      </root>
    </mxGraphModel>
  </diagram>
</mxfile>
